# xmcd
#
# Track frame offsets: 
#        150
#        11942
#        24480
#        33720
#        46882
#        59552
#        70632
#        83264
#        93948
#        105598
#
# Disc length: 1603 seconds
#
# Revision: 0
# Processed by: cddbd v1.5.2PL0 Copyright (c) Steve Scherf et al.
# Submitted via: ExactAudioCopy v1.0b1
#
DISCID=7506410a
DTITLE=Johnny Cash - Johnny Cash - 20 Greatest Hits [CD1]
DYEAR=2009
DGENRE=Country
TTITLE0=I Walk the Line
TTITLE1=Ring of Fire
TTITLE2=I Got Stripes
TTITLE3=Ballad of Ira Hayes
TTITLE4=Folsom Prison Blues
TTITLE5=Cry, Cry, Cry
TTITLE6=Sixteen Tons
TTITLE7=Hey Porter
TTITLE8=Get Rhythm
TTITLE9=Long Black Veil
EXTD=
EXTT0=
EXTT1=
EXTT2=
EXTT3=
EXTT4=
EXTT5=
EXTT6=
EXTT7=
EXTT8=
EXTT9=
PLAYORDER=
